<svg xmlns="http://www.w3.org/2000/svg" width="2320" height="1640" viewBox="0 0 2320 1640">
<defs>
<marker id="arrow" markerWidth="12" markerHeight="12" refX="10" refY="6" orient="auto">
<path d="M0,0 L12,6 L0,12 z" fill="#334155"/>
</marker>
<filter id="shadow" x="-20%" y="-20%" width="140%" height="140%">
<feDropShadow dx="0" dy="8" stdDeviation="8" flood-color="#0f172a" flood-opacity="0.08"/>
</filter>
</defs>
<rect width="2320" height="1640" fill="#ffffff"/>
<text x="1160.0" y="42" text-anchor="middle" font-family="'PingFang SC','Noto Sans CJK SC','Microsoft YaHei',Arial,sans-serif" font-size="30" font-weight="700" fill="#0f172a">统一工作台页面映射图</text>
<rect x="70" y="90" width="460" height="1380" rx="28" fill="#f8fafc" stroke="#cbd5e1" stroke-width="2"/>
<rect x="600" y="90" width="500" height="1380" rx="28" fill="#f8fafc" stroke="#cbd5e1" stroke-width="2"/>
<rect x="1170" y="90" width="1080" height="1380" rx="28" fill="#f8fafc" stroke="#cbd5e1" stroke-width="2"/>
<text x="300" y="136" text-anchor="middle" font-family="'PingFang SC','Noto Sans CJK SC','Microsoft YaHei',Arial,sans-serif" font-size="24" font-weight="700" fill="#0f172a">统一工作台页面</text>
<text x="850" y="136" text-anchor="middle" font-family="'PingFang SC','Noto Sans CJK SC','Microsoft YaHei',Arial,sans-serif" font-size="24" font-weight="700" fill="#0f172a">平台聚合接口</text>
<text x="1710" y="136" text-anchor="middle" font-family="'PingFang SC','Noto Sans CJK SC','Microsoft YaHei',Arial,sans-serif" font-size="24" font-weight="700" fill="#0f172a">观测落点 / 外部入口</text>
<rect x="110" y="170" width="380" height="114" rx="22" fill="#ffffff" stroke="none" stroke-width="0"/>
<rect x="110" y="170" width="380" height="60" rx="22" fill="#dbeafe" stroke="none" stroke-width="0"/>
<rect x="110" y="208" width="380" height="24" fill="#dbeafe" stroke="none"/>
<rect x="110" y="170" width="380" height="114" rx="22" fill="none" stroke="#334155" stroke-width="2"/>
<text x="300.0" y="208" text-anchor="middle" font-family="'PingFang SC','Noto Sans CJK SC','Microsoft YaHei',Arial,sans-serif" font-size="24" font-weight="700" fill="#0f172a">总览</text>
<text x="300.0" y="260.0" text-anchor="middle" font-family="'PingFang SC','Noto Sans CJK SC','Microsoft YaHei',Arial,sans-serif" font-size="20" font-weight="400" fill="#0f172a">页面入口</text>
<rect x="650" y="170" width="400" height="114" rx="22" fill="#ffffff" stroke="none" stroke-width="0"/>
<rect x="650" y="170" width="400" height="60" rx="22" fill="#ccfbf1" stroke="none" stroke-width="0"/>
<rect x="650" y="208" width="400" height="24" fill="#ccfbf1" stroke="none"/>
<rect x="650" y="170" width="400" height="114" rx="22" fill="none" stroke="#334155" stroke-width="2"/>
<text x="850.0" y="208" text-anchor="middle" font-family="'PingFang SC','Noto Sans CJK SC','Microsoft YaHei',Arial,sans-serif" font-size="24" font-weight="700" fill="#0f172a">/api/overview</text>
<text x="850.0" y="260.0" text-anchor="middle" font-family="'PingFang SC','Noto Sans CJK SC','Microsoft YaHei',Arial,sans-serif" font-size="20" font-weight="400" fill="#0f172a">平台整理后的摘要接口</text>
<line x1="490" y1="241" x2="650" y2="241" stroke="#334155" stroke-width="2" marker-end="url(#arrow)"/>
<rect x="1490" y="170" width="420" height="114" rx="22" fill="#ffffff" stroke="none" stroke-width="0"/>
<rect x="1490" y="170" width="420" height="60" rx="22" fill="#dcfce7" stroke="none" stroke-width="0"/>
<rect x="1490" y="208" width="420" height="24" fill="#dcfce7" stroke="none"/>
<rect x="1490" y="170" width="420" height="114" rx="22" fill="none" stroke="#334155" stroke-width="2"/>
<text x="1700.0" y="208" text-anchor="middle" font-family="'PingFang SC','Noto Sans CJK SC','Microsoft YaHei',Arial,sans-serif" font-size="24" font-weight="700" fill="#0f172a">Grafana</text>
<text x="1700.0" y="260.0" text-anchor="middle" font-family="'PingFang SC','Noto Sans CJK SC','Microsoft YaHei',Arial,sans-serif" font-size="20" font-weight="400" fill="#0f172a">总览面板</text>
<line x1="1050" y1="241" x2="1490" y2="241" stroke="#334155" stroke-width="2" stroke-dasharray="10 8" marker-end="url(#arrow)"/>
<rect x="110" y="350" width="380" height="114" rx="22" fill="#ffffff" stroke="none" stroke-width="0"/>
<rect x="110" y="350" width="380" height="60" rx="22" fill="#dbeafe" stroke="none" stroke-width="0"/>
<rect x="110" y="388" width="380" height="24" fill="#dbeafe" stroke="none"/>
<rect x="110" y="350" width="380" height="114" rx="22" fill="none" stroke="#334155" stroke-width="2"/>
<text x="300.0" y="388" text-anchor="middle" font-family="'PingFang SC','Noto Sans CJK SC','Microsoft YaHei',Arial,sans-serif" font-size="24" font-weight="700" fill="#0f172a">节点页</text>
<text x="300.0" y="440.0" text-anchor="middle" font-family="'PingFang SC','Noto Sans CJK SC','Microsoft YaHei',Arial,sans-serif" font-size="20" font-weight="400" fill="#0f172a">页面入口</text>
<rect x="650" y="350" width="400" height="114" rx="22" fill="#ffffff" stroke="none" stroke-width="0"/>
<rect x="650" y="350" width="400" height="60" rx="22" fill="#ccfbf1" stroke="none" stroke-width="0"/>
<rect x="650" y="388" width="400" height="24" fill="#ccfbf1" stroke="none"/>
<rect x="650" y="350" width="400" height="114" rx="22" fill="none" stroke="#334155" stroke-width="2"/>
<text x="850.0" y="388" text-anchor="middle" font-family="'PingFang SC','Noto Sans CJK SC','Microsoft YaHei',Arial,sans-serif" font-size="24" font-weight="700" fill="#0f172a">/api/nodes</text>
<text x="850.0" y="440.0" text-anchor="middle" font-family="'PingFang SC','Noto Sans CJK SC','Microsoft YaHei',Arial,sans-serif" font-size="20" font-weight="400" fill="#0f172a">平台整理后的摘要接口</text>
<line x1="490" y1="421" x2="650" y2="421" stroke="#334155" stroke-width="2" marker-end="url(#arrow)"/>
<rect x="1490" y="350" width="420" height="114" rx="22" fill="#ffffff" stroke="none" stroke-width="0"/>
<rect x="1490" y="350" width="420" height="60" rx="22" fill="#dcfce7" stroke="none" stroke-width="0"/>
<rect x="1490" y="388" width="420" height="24" fill="#dcfce7" stroke="none"/>
<rect x="1490" y="350" width="420" height="114" rx="22" fill="none" stroke="#334155" stroke-width="2"/>
<text x="1700.0" y="388" text-anchor="middle" font-family="'PingFang SC','Noto Sans CJK SC','Microsoft YaHei',Arial,sans-serif" font-size="24" font-weight="700" fill="#0f172a">Grafana</text>
<text x="1700.0" y="440.0" text-anchor="middle" font-family="'PingFang SC','Noto Sans CJK SC','Microsoft YaHei',Arial,sans-serif" font-size="20" font-weight="400" fill="#0f172a">节点面板</text>
<line x1="1050" y1="421" x2="1490" y2="421" stroke="#334155" stroke-width="2" stroke-dasharray="10 8" marker-end="url(#arrow)"/>
<rect x="110" y="530" width="380" height="114" rx="22" fill="#ffffff" stroke="none" stroke-width="0"/>
<rect x="110" y="530" width="380" height="60" rx="22" fill="#dbeafe" stroke="none" stroke-width="0"/>
<rect x="110" y="568" width="380" height="24" fill="#dbeafe" stroke="none"/>
<rect x="110" y="530" width="380" height="114" rx="22" fill="none" stroke="#334155" stroke-width="2"/>
<text x="300.0" y="568" text-anchor="middle" font-family="'PingFang SC','Noto Sans CJK SC','Microsoft YaHei',Arial,sans-serif" font-size="24" font-weight="700" fill="#0f172a">节点详情</text>
<text x="300.0" y="620.0" text-anchor="middle" font-family="'PingFang SC','Noto Sans CJK SC','Microsoft YaHei',Arial,sans-serif" font-size="20" font-weight="400" fill="#0f172a">页面入口</text>
<rect x="650" y="530" width="400" height="114" rx="22" fill="#ffffff" stroke="none" stroke-width="0"/>
<rect x="650" y="530" width="400" height="60" rx="22" fill="#ccfbf1" stroke="none" stroke-width="0"/>
<rect x="650" y="568" width="400" height="24" fill="#ccfbf1" stroke="none"/>
<rect x="650" y="530" width="400" height="114" rx="22" fill="none" stroke="#334155" stroke-width="2"/>
<text x="850.0" y="568" text-anchor="middle" font-family="'PingFang SC','Noto Sans CJK SC','Microsoft YaHei',Arial,sans-serif" font-size="24" font-weight="700" fill="#0f172a">/api/nodes/{id}</text>
<text x="850.0" y="620.0" text-anchor="middle" font-family="'PingFang SC','Noto Sans CJK SC','Microsoft YaHei',Arial,sans-serif" font-size="20" font-weight="400" fill="#0f172a">平台整理后的摘要接口</text>
<line x1="490" y1="601" x2="650" y2="601" stroke="#334155" stroke-width="2" marker-end="url(#arrow)"/>
<rect x="1280" y="530" width="320" height="114" rx="22" fill="#ffffff" stroke="none" stroke-width="0"/>
<rect x="1280" y="530" width="320" height="60" rx="22" fill="#dcfce7" stroke="none" stroke-width="0"/>
<rect x="1280" y="568" width="320" height="24" fill="#dcfce7" stroke="none"/>
<rect x="1280" y="530" width="320" height="114" rx="22" fill="none" stroke="#334155" stroke-width="2"/>
<text x="1440.0" y="568" text-anchor="middle" font-family="'PingFang SC','Noto Sans CJK SC','Microsoft YaHei',Arial,sans-serif" font-size="24" font-weight="700" fill="#0f172a">Grafana</text>
<text x="1440.0" y="620.0" text-anchor="middle" font-family="'PingFang SC','Noto Sans CJK SC','Microsoft YaHei',Arial,sans-serif" font-size="20" font-weight="400" fill="#0f172a">节点面板</text>
<rect x="1680" y="530" width="320" height="114" rx="22" fill="#ffffff" stroke="none" stroke-width="0"/>
<rect x="1680" y="530" width="320" height="60" rx="22" fill="#fef3c7" stroke="none" stroke-width="0"/>
<rect x="1680" y="568" width="320" height="24" fill="#fef3c7" stroke="none"/>
<rect x="1680" y="530" width="320" height="114" rx="22" fill="none" stroke="#334155" stroke-width="2"/>
<text x="1840.0" y="568" text-anchor="middle" font-family="'PingFang SC','Noto Sans CJK SC','Microsoft YaHei',Arial,sans-serif" font-size="24" font-weight="700" fill="#0f172a">Prometheus</text>
<text x="1840.0" y="620.0" text-anchor="middle" font-family="'PingFang SC','Noto Sans CJK SC','Microsoft YaHei',Arial,sans-serif" font-size="20" font-weight="400" fill="#0f172a">Up / Targets</text>
<line x1="1050" y1="586" x2="1280" y2="586" stroke="#334155" stroke-width="2" stroke-dasharray="10 8" marker-end="url(#arrow)"/>
<polyline points="1050,616 1180,616 1180,680 1640,680 1640,616 1680,616" fill="none" stroke="#334155" stroke-width="2" stroke-dasharray="10 8" marker-end="url(#arrow)"/>
<rect x="110" y="710" width="380" height="114" rx="22" fill="#ffffff" stroke="none" stroke-width="0"/>
<rect x="110" y="710" width="380" height="60" rx="22" fill="#dbeafe" stroke="none" stroke-width="0"/>
<rect x="110" y="748" width="380" height="24" fill="#dbeafe" stroke="none"/>
<rect x="110" y="710" width="380" height="114" rx="22" fill="none" stroke="#334155" stroke-width="2"/>
<text x="300.0" y="748" text-anchor="middle" font-family="'PingFang SC','Noto Sans CJK SC','Microsoft YaHei',Arial,sans-serif" font-size="24" font-weight="700" fill="#0f172a">服务页</text>
<text x="300.0" y="800.0" text-anchor="middle" font-family="'PingFang SC','Noto Sans CJK SC','Microsoft YaHei',Arial,sans-serif" font-size="20" font-weight="400" fill="#0f172a">页面入口</text>
<rect x="650" y="710" width="400" height="114" rx="22" fill="#ffffff" stroke="none" stroke-width="0"/>
<rect x="650" y="710" width="400" height="60" rx="22" fill="#ccfbf1" stroke="none" stroke-width="0"/>
<rect x="650" y="748" width="400" height="24" fill="#ccfbf1" stroke="none"/>
<rect x="650" y="710" width="400" height="114" rx="22" fill="none" stroke="#334155" stroke-width="2"/>
<text x="850.0" y="748" text-anchor="middle" font-family="'PingFang SC','Noto Sans CJK SC','Microsoft YaHei',Arial,sans-serif" font-size="24" font-weight="700" fill="#0f172a">/api/services</text>
<text x="850.0" y="800.0" text-anchor="middle" font-family="'PingFang SC','Noto Sans CJK SC','Microsoft YaHei',Arial,sans-serif" font-size="20" font-weight="400" fill="#0f172a">平台整理后的摘要接口</text>
<line x1="490" y1="781" x2="650" y2="781" stroke="#334155" stroke-width="2" marker-end="url(#arrow)"/>
<rect x="1490" y="710" width="420" height="114" rx="22" fill="#ffffff" stroke="none" stroke-width="0"/>
<rect x="1490" y="710" width="420" height="60" rx="22" fill="#e2e8f0" stroke="none" stroke-width="0"/>
<rect x="1490" y="748" width="420" height="24" fill="#e2e8f0" stroke="none"/>
<rect x="1490" y="710" width="420" height="114" rx="22" fill="none" stroke="#334155" stroke-width="2"/>
<text x="1700.0" y="748" text-anchor="middle" font-family="'PingFang SC','Noto Sans CJK SC','Microsoft YaHei',Arial,sans-serif" font-size="24" font-weight="700" fill="#0f172a">平台内摘要</text>
<text x="1700.0" y="800.0" text-anchor="middle" font-family="'PingFang SC','Noto Sans CJK SC','Microsoft YaHei',Arial,sans-serif" font-size="20" font-weight="400" fill="#0f172a">仅在平台内查看聚合结果</text>
<line x1="1050" y1="781" x2="1490" y2="781" stroke="#334155" stroke-width="2" stroke-dasharray="10 8" marker-end="url(#arrow)"/>
<rect x="110" y="890" width="380" height="114" rx="22" fill="#ffffff" stroke="none" stroke-width="0"/>
<rect x="110" y="890" width="380" height="60" rx="22" fill="#dbeafe" stroke="none" stroke-width="0"/>
<rect x="110" y="928" width="380" height="24" fill="#dbeafe" stroke="none"/>
<rect x="110" y="890" width="380" height="114" rx="22" fill="none" stroke="#334155" stroke-width="2"/>
<text x="300.0" y="928" text-anchor="middle" font-family="'PingFang SC','Noto Sans CJK SC','Microsoft YaHei',Arial,sans-serif" font-size="24" font-weight="700" fill="#0f172a">服务详情</text>
<text x="300.0" y="980.0" text-anchor="middle" font-family="'PingFang SC','Noto Sans CJK SC','Microsoft YaHei',Arial,sans-serif" font-size="20" font-weight="400" fill="#0f172a">页面入口</text>
<rect x="650" y="890" width="400" height="114" rx="22" fill="#ffffff" stroke="none" stroke-width="0"/>
<rect x="650" y="890" width="400" height="60" rx="22" fill="#ccfbf1" stroke="none" stroke-width="0"/>
<rect x="650" y="928" width="400" height="24" fill="#ccfbf1" stroke="none"/>
<rect x="650" y="890" width="400" height="114" rx="22" fill="none" stroke="#334155" stroke-width="2"/>
<text x="850.0" y="928" text-anchor="middle" font-family="'PingFang SC','Noto Sans CJK SC','Microsoft YaHei',Arial,sans-serif" font-size="24" font-weight="700" fill="#0f172a">/api/services/{id}</text>
<text x="850.0" y="980.0" text-anchor="middle" font-family="'PingFang SC','Noto Sans CJK SC','Microsoft YaHei',Arial,sans-serif" font-size="20" font-weight="400" fill="#0f172a">平台整理后的摘要接口</text>
<line x1="490" y1="961" x2="650" y2="961" stroke="#334155" stroke-width="2" marker-end="url(#arrow)"/>
<rect x="1280" y="890" width="320" height="114" rx="22" fill="#ffffff" stroke="none" stroke-width="0"/>
<rect x="1280" y="890" width="320" height="60" rx="22" fill="#fef3c7" stroke="none" stroke-width="0"/>
<rect x="1280" y="928" width="320" height="24" fill="#fef3c7" stroke="none"/>
<rect x="1280" y="890" width="320" height="114" rx="22" fill="none" stroke="#334155" stroke-width="2"/>
<text x="1440.0" y="928" text-anchor="middle" font-family="'PingFang SC','Noto Sans CJK SC','Microsoft YaHei',Arial,sans-serif" font-size="24" font-weight="700" fill="#0f172a">Prometheus</text>
<text x="1440.0" y="980.0" text-anchor="middle" font-family="'PingFang SC','Noto Sans CJK SC','Microsoft YaHei',Arial,sans-serif" font-size="20" font-weight="400" fill="#0f172a">运行指标</text>
<rect x="1680" y="890" width="320" height="114" rx="22" fill="#ffffff" stroke="none" stroke-width="0"/>
<rect x="1680" y="890" width="320" height="60" rx="22" fill="#e0f2fe" stroke="none" stroke-width="0"/>
<rect x="1680" y="928" width="320" height="24" fill="#e0f2fe" stroke="none"/>
<rect x="1680" y="890" width="320" height="114" rx="22" fill="none" stroke="#334155" stroke-width="2"/>
<text x="1840.0" y="928" text-anchor="middle" font-family="'PingFang SC','Noto Sans CJK SC','Microsoft YaHei',Arial,sans-serif" font-size="24" font-weight="700" fill="#0f172a">SkyWalking</text>
<text x="1840.0" y="980.0" text-anchor="middle" font-family="'PingFang SC','Noto Sans CJK SC','Microsoft YaHei',Arial,sans-serif" font-size="20" font-weight="400" fill="#0f172a">调用链入口</text>
<line x1="1050" y1="946" x2="1280" y2="946" stroke="#334155" stroke-width="2" stroke-dasharray="10 8" marker-end="url(#arrow)"/>
<polyline points="1050,976 1180,976 1180,1040 1640,1040 1640,976 1680,976" fill="none" stroke="#334155" stroke-width="2" stroke-dasharray="10 8" marker-end="url(#arrow)"/>
<rect x="110" y="1070" width="380" height="114" rx="22" fill="#ffffff" stroke="none" stroke-width="0"/>
<rect x="110" y="1070" width="380" height="60" rx="22" fill="#dbeafe" stroke="none" stroke-width="0"/>
<rect x="110" y="1108" width="380" height="24" fill="#dbeafe" stroke="none"/>
<rect x="110" y="1070" width="380" height="114" rx="22" fill="none" stroke="#334155" stroke-width="2"/>
<text x="300.0" y="1108" text-anchor="middle" font-family="'PingFang SC','Noto Sans CJK SC','Microsoft YaHei',Arial,sans-serif" font-size="24" font-weight="700" fill="#0f172a">链路页</text>
<text x="300.0" y="1160.0" text-anchor="middle" font-family="'PingFang SC','Noto Sans CJK SC','Microsoft YaHei',Arial,sans-serif" font-size="20" font-weight="400" fill="#0f172a">页面入口</text>
<rect x="650" y="1070" width="400" height="114" rx="22" fill="#ffffff" stroke="none" stroke-width="0"/>
<rect x="650" y="1070" width="400" height="60" rx="22" fill="#ccfbf1" stroke="none" stroke-width="0"/>
<rect x="650" y="1108" width="400" height="24" fill="#ccfbf1" stroke="none"/>
<rect x="650" y="1070" width="400" height="114" rx="22" fill="none" stroke="#334155" stroke-width="2"/>
<text x="850.0" y="1108" text-anchor="middle" font-family="'PingFang SC','Noto Sans CJK SC','Microsoft YaHei',Arial,sans-serif" font-size="24" font-weight="700" fill="#0f172a">/api/tracing/summary</text>
<text x="850.0" y="1160.0" text-anchor="middle" font-family="'PingFang SC','Noto Sans CJK SC','Microsoft YaHei',Arial,sans-serif" font-size="20" font-weight="400" fill="#0f172a">平台整理后的摘要接口</text>
<line x1="490" y1="1141" x2="650" y2="1141" stroke="#334155" stroke-width="2" marker-end="url(#arrow)"/>
<rect x="1490" y="1070" width="420" height="114" rx="22" fill="#ffffff" stroke="none" stroke-width="0"/>
<rect x="1490" y="1070" width="420" height="60" rx="22" fill="#e0f2fe" stroke="none" stroke-width="0"/>
<rect x="1490" y="1108" width="420" height="24" fill="#e0f2fe" stroke="none"/>
<rect x="1490" y="1070" width="420" height="114" rx="22" fill="none" stroke="#334155" stroke-width="2"/>
<text x="1700.0" y="1108" text-anchor="middle" font-family="'PingFang SC','Noto Sans CJK SC','Microsoft YaHei',Arial,sans-serif" font-size="24" font-weight="700" fill="#0f172a">SkyWalking</text>
<text x="1700.0" y="1160.0" text-anchor="middle" font-family="'PingFang SC','Noto Sans CJK SC','Microsoft YaHei',Arial,sans-serif" font-size="20" font-weight="400" fill="#0f172a">完整 Trace</text>
<line x1="1050" y1="1141" x2="1490" y2="1141" stroke="#334155" stroke-width="2" stroke-dasharray="10 8" marker-end="url(#arrow)"/>
<rect x="110" y="1250" width="380" height="114" rx="22" fill="#ffffff" stroke="none" stroke-width="0"/>
<rect x="110" y="1250" width="380" height="60" rx="22" fill="#dbeafe" stroke="none" stroke-width="0"/>
<rect x="110" y="1288" width="380" height="24" fill="#dbeafe" stroke="none"/>
<rect x="110" y="1250" width="380" height="114" rx="22" fill="none" stroke="#334155" stroke-width="2"/>
<text x="300.0" y="1288" text-anchor="middle" font-family="'PingFang SC','Noto Sans CJK SC','Microsoft YaHei',Arial,sans-serif" font-size="24" font-weight="700" fill="#0f172a">调试页</text>
<text x="300.0" y="1340.0" text-anchor="middle" font-family="'PingFang SC','Noto Sans CJK SC','Microsoft YaHei',Arial,sans-serif" font-size="20" font-weight="400" fill="#0f172a">页面入口</text>
<rect x="650" y="1250" width="400" height="114" rx="22" fill="#ffffff" stroke="none" stroke-width="0"/>
<rect x="650" y="1250" width="400" height="60" rx="22" fill="#ccfbf1" stroke="none" stroke-width="0"/>
<rect x="650" y="1288" width="400" height="24" fill="#ccfbf1" stroke="none"/>
<rect x="650" y="1250" width="400" height="114" rx="22" fill="none" stroke="#334155" stroke-width="2"/>
<text x="850.0" y="1288" text-anchor="middle" font-family="'PingFang SC','Noto Sans CJK SC','Microsoft YaHei',Arial,sans-serif" font-size="24" font-weight="700" fill="#0f172a">/api/trends / Prom API</text>
<text x="850.0" y="1340.0" text-anchor="middle" font-family="'PingFang SC','Noto Sans CJK SC','Microsoft YaHei',Arial,sans-serif" font-size="20" font-weight="400" fill="#0f172a">平台整理后的摘要接口</text>
<line x1="490" y1="1321" x2="650" y2="1321" stroke="#334155" stroke-width="2" marker-end="url(#arrow)"/>
<rect x="1490" y="1250" width="420" height="114" rx="22" fill="#ffffff" stroke="none" stroke-width="0"/>
<rect x="1490" y="1250" width="420" height="60" rx="22" fill="#fef3c7" stroke="none" stroke-width="0"/>
<rect x="1490" y="1288" width="420" height="24" fill="#fef3c7" stroke="none"/>
<rect x="1490" y="1250" width="420" height="114" rx="22" fill="none" stroke="#334155" stroke-width="2"/>
<text x="1700.0" y="1288" text-anchor="middle" font-family="'PingFang SC','Noto Sans CJK SC','Microsoft YaHei',Arial,sans-serif" font-size="24" font-weight="700" fill="#0f172a">Prometheus</text>
<text x="1700.0" y="1340.0" text-anchor="middle" font-family="'PingFang SC','Noto Sans CJK SC','Microsoft YaHei',Arial,sans-serif" font-size="20" font-weight="400" fill="#0f172a">原始调试</text>
<line x1="1050" y1="1321" x2="1490" y2="1321" stroke="#334155" stroke-width="2" stroke-dasharray="10 8" marker-end="url(#arrow)"/>
<rect x="130" y="1500" width="2060" height="98" rx="18" fill="#fffaf4" stroke="#fdba74" stroke-width="2"/>
<text x="148" y="1534" text-anchor="start" font-family="'PingFang SC','Noto Sans CJK SC','Microsoft YaHei',Arial,sans-serif" font-size="20" font-weight="400" fill="#9a3412"><tspan x="148" dy="0">页面先展示平台整理后的结构化摘要，再把外部系统入口压成逐行落点。</tspan><tspan x="148" dy="26">这样既保留统一工作台体验，也保留对 Grafana、Prometheus、SkyWalking 的核对路径。</tspan></text>
</svg>