<svg xmlns="http://www.w3.org/2000/svg" width="2280" height="1500" viewBox="0 0 2280 1500">
<defs>
<marker id="arrow" markerWidth="12" markerHeight="12" refX="10" refY="6" orient="auto">
<path d="M0,0 L12,6 L0,12 z" fill="#334155"/>
</marker>
<filter id="shadow" x="-20%" y="-20%" width="140%" height="140%">
<feDropShadow dx="0" dy="8" stdDeviation="8" flood-color="#0f172a" flood-opacity="0.08"/>
</filter>
</defs>
<rect width="2280" height="1500" fill="#ffffff"/>
<text x="1140.0" y="42" text-anchor="middle" font-family="'PingFang SC','Noto Sans CJK SC','Microsoft YaHei',Arial,sans-serif" font-size="30" font-weight="700" fill="#0f172a">主分支交付时序图</text>
<rect x="35.0" y="70" width="170" height="58" rx="18" fill="#eff6ff" stroke="#1d4ed8" stroke-width="2"/>
<text x="120" y="106" text-anchor="middle" font-family="'PingFang SC','Noto Sans CJK SC','Microsoft YaHei',Arial,sans-serif" font-size="22" font-weight="700" fill="#0f172a">push main</text>
<line x1="120" y1="128" x2="120" y2="1280" stroke="#94a3b8" stroke-width="2" stroke-dasharray="10 8"/>
<rect x="345.0" y="70" width="170" height="58" rx="18" fill="#eff6ff" stroke="#1d4ed8" stroke-width="2"/>
<text x="430" y="106" text-anchor="middle" font-family="'PingFang SC','Noto Sans CJK SC','Microsoft YaHei',Arial,sans-serif" font-size="22" font-weight="700" fill="#0f172a">Actions</text>
<line x1="430" y1="128" x2="430" y2="1280" stroke="#94a3b8" stroke-width="2" stroke-dasharray="10 8"/>
<rect x="685.0" y="70" width="170" height="58" rx="18" fill="#eff6ff" stroke="#1d4ed8" stroke-width="2"/>
<text x="770" y="106" text-anchor="middle" font-family="'PingFang SC','Noto Sans CJK SC','Microsoft YaHei',Arial,sans-serif" font-size="22" font-weight="700" fill="#0f172a">packaging</text>
<line x1="770" y1="128" x2="770" y2="1280" stroke="#94a3b8" stroke-width="2" stroke-dasharray="10 8"/>
<rect x="1025.0" y="70" width="170" height="58" rx="18" fill="#eff6ff" stroke="#1d4ed8" stroke-width="2"/>
<text x="1110" y="106" text-anchor="middle" font-family="'PingFang SC','Noto Sans CJK SC','Microsoft YaHei',Arial,sans-serif" font-size="22" font-weight="700" fill="#0f172a">smoke-test</text>
<line x1="1110" y1="128" x2="1110" y2="1280" stroke="#94a3b8" stroke-width="2" stroke-dasharray="10 8"/>
<rect x="1365.0" y="70" width="170" height="58" rx="18" fill="#eff6ff" stroke="#1d4ed8" stroke-width="2"/>
<text x="1450" y="106" text-anchor="middle" font-family="'PingFang SC','Noto Sans CJK SC','Microsoft YaHei',Arial,sans-serif" font-size="22" font-weight="700" fill="#0f172a">deploy-main.sh</text>
<line x1="1450" y1="128" x2="1450" y2="1280" stroke="#94a3b8" stroke-width="2" stroke-dasharray="10 8"/>
<rect x="1705.0" y="70" width="170" height="58" rx="18" fill="#eff6ff" stroke="#1d4ed8" stroke-width="2"/>
<text x="1790" y="106" text-anchor="middle" font-family="'PingFang SC','Noto Sans CJK SC','Microsoft YaHei',Arial,sans-serif" font-size="22" font-weight="700" fill="#0f172a">Server</text>
<line x1="1790" y1="128" x2="1790" y2="1280" stroke="#94a3b8" stroke-width="2" stroke-dasharray="10 8"/>
<rect x="2045.0" y="70" width="170" height="58" rx="18" fill="#eff6ff" stroke="#1d4ed8" stroke-width="2"/>
<text x="2130" y="106" text-anchor="middle" font-family="'PingFang SC','Noto Sans CJK SC','Microsoft YaHei',Arial,sans-serif" font-size="22" font-weight="700" fill="#0f172a">Runtime</text>
<line x1="2130" y1="128" x2="2130" y2="1280" stroke="#94a3b8" stroke-width="2" stroke-dasharray="10 8"/>
<line x1="120" y1="190" x2="430" y2="190" stroke="#334155" stroke-width="2" marker-end="url(#arrow)"/>
<rect x="128.0" y="156.0" width="294" height="34" rx="12" fill="#ffffff" stroke="#cbd5e1" stroke-width="1.5"/>
<text x="275.0" y="179.0" text-anchor="middle" font-family="'PingFang SC','Noto Sans CJK SC','Microsoft YaHei',Arial,sans-serif" font-size="18" font-weight="500" fill="#0f172a">触发 deploy-main.yml</text>
<line x1="430" y1="276" x2="770" y2="276" stroke="#334155" stroke-width="2" marker-end="url(#arrow)"/>
<rect x="543.0" y="242.0" width="114" height="34" rx="12" fill="#ffffff" stroke="#cbd5e1" stroke-width="1.5"/>
<text x="600.0" y="265.0" text-anchor="middle" font-family="'PingFang SC','Noto Sans CJK SC','Microsoft YaHei',Arial,sans-serif" font-size="18" font-weight="500" fill="#0f172a">关键配置回归</text>
<line x1="770" y1="362" x2="430" y2="362" stroke="#334155" stroke-width="2" stroke-dasharray="10 8" marker-end="url(#arrow)"/>
<rect x="546.0" y="328.0" width="108" height="34" rx="12" fill="#f8fafc" stroke="#cbd5e1" stroke-width="1.5"/>
<text x="600.0" y="351.0" text-anchor="middle" font-family="'PingFang SC','Noto Sans CJK SC','Microsoft YaHei',Arial,sans-serif" font-size="18" font-weight="500" fill="#0f172a">通过</text>
<line x1="430" y1="448" x2="1110" y2="448" stroke="#334155" stroke-width="2" marker-end="url(#arrow)"/>
<rect x="713.0" y="414.0" width="114" height="34" rx="12" fill="#ffffff" stroke="#cbd5e1" stroke-width="1.5"/>
<text x="770.0" y="437.0" text-anchor="middle" font-family="'PingFang SC','Noto Sans CJK SC','Microsoft YaHei',Arial,sans-serif" font-size="18" font-weight="500" fill="#0f172a">完整环境冒烟</text>
<line x1="1110" y1="534" x2="2130" y2="534" stroke="#334155" stroke-width="2" marker-end="url(#arrow)"/>
<rect x="1450.5" y="500.0" width="339" height="34" rx="12" fill="#ffffff" stroke="#cbd5e1" stroke-width="1.5"/>
<text x="1620.0" y="523.0" text-anchor="middle" font-family="'PingFang SC','Noto Sans CJK SC','Microsoft YaHei',Arial,sans-serif" font-size="18" font-weight="500" fill="#0f172a">验证节点/服务/targets/Trace</text>
<line x1="2130" y1="620" x2="1110" y2="620" stroke="#334155" stroke-width="2" stroke-dasharray="10 8" marker-end="url(#arrow)"/>
<rect x="1566.0" y="586.0" width="108" height="34" rx="12" fill="#f8fafc" stroke="#cbd5e1" stroke-width="1.5"/>
<text x="1620.0" y="609.0" text-anchor="middle" font-family="'PingFang SC','Noto Sans CJK SC','Microsoft YaHei',Arial,sans-serif" font-size="18" font-weight="500" fill="#0f172a">闭环成立</text>
<line x1="430" y1="706" x2="1450" y2="706" stroke="#334155" stroke-width="2" marker-end="url(#arrow)"/>
<rect x="868.0" y="672.0" width="144" height="34" rx="12" fill="#ffffff" stroke="#cbd5e1" stroke-width="1.5"/>
<text x="940.0" y="695.0" text-anchor="middle" font-family="'PingFang SC','Noto Sans CJK SC','Microsoft YaHei',Arial,sans-serif" font-size="18" font-weight="500" fill="#0f172a">SSH 执行部署</text>
<line x1="1450" y1="792" x2="1790" y2="792" stroke="#334155" stroke-width="2" marker-end="url(#arrow)"/>
<rect x="1420.5" y="758.0" width="399" height="34" rx="12" fill="#ffffff" stroke="#cbd5e1" stroke-width="1.5"/>
<text x="1620.0" y="781.0" text-anchor="middle" font-family="'PingFang SC','Noto Sans CJK SC','Microsoft YaHei',Arial,sans-serif" font-size="18" font-weight="500" fill="#0f172a">git fetch + checkout main</text>
<line x1="1450" y1="878" x2="2130" y2="878" stroke="#334155" stroke-width="2" marker-end="url(#arrow)"/>
<rect x="1568.0" y="844.0" width="444" height="34" rx="12" fill="#ffffff" stroke="#cbd5e1" stroke-width="1.5"/>
<text x="1790.0" y="867.0" text-anchor="middle" font-family="'PingFang SC','Noto Sans CJK SC','Microsoft YaHei',Arial,sans-serif" font-size="18" font-weight="500" fill="#0f172a">docker compose up -d --build</text>
<line x1="1450" y1="964" x2="2130" y2="964" stroke="#334155" stroke-width="2" marker-end="url(#arrow)"/>
<rect x="1733.0" y="930.0" width="114" height="34" rx="12" fill="#ffffff" stroke="#cbd5e1" stroke-width="1.5"/>
<text x="1790.0" y="953.0" text-anchor="middle" font-family="'PingFang SC','Noto Sans CJK SC','Microsoft YaHei',Arial,sans-serif" font-size="18" font-weight="500" fill="#0f172a">等待健康检查</text>
<line x1="1450" y1="1050" x2="2130" y2="1050" stroke="#334155" stroke-width="2" marker-end="url(#arrow)"/>
<rect x="1613.0" y="1016.0" width="354" height="34" rx="12" fill="#ffffff" stroke="#cbd5e1" stroke-width="1.5"/>
<text x="1790.0" y="1039.0" text-anchor="middle" font-family="'PingFang SC','Noto Sans CJK SC','Microsoft YaHei',Arial,sans-serif" font-size="18" font-weight="500" fill="#0f172a">warmup /api/demo-chain</text>
<line x1="1450" y1="1136" x2="2130" y2="1136" stroke="#334155" stroke-width="2" marker-end="url(#arrow)"/>
<rect x="1703.0" y="1102.0" width="174" height="34" rx="12" fill="#ffffff" stroke="#cbd5e1" stroke-width="1.5"/>
<text x="1790.0" y="1125.0" text-anchor="middle" font-family="'PingFang SC','Noto Sans CJK SC','Microsoft YaHei',Arial,sans-serif" font-size="18" font-weight="500" fill="#0f172a">等待业务 Trace</text>
<line x1="2130" y1="1222" x2="1450" y2="1222" stroke="#334155" stroke-width="2" stroke-dasharray="10 8" marker-end="url(#arrow)"/>
<rect x="1736.0" y="1188.0" width="108" height="34" rx="12" fill="#f8fafc" stroke="#cbd5e1" stroke-width="1.5"/>
<text x="1790.0" y="1211.0" text-anchor="middle" font-family="'PingFang SC','Noto Sans CJK SC','Microsoft YaHei',Arial,sans-serif" font-size="18" font-weight="500" fill="#0f172a">部署成功</text>
<rect x="1180" y="1320" width="980" height="124" rx="18" fill="#fffaf4" stroke="#fdba74" stroke-width="2"/>
<text x="1198" y="1354" text-anchor="start" font-family="'PingFang SC','Noto Sans CJK SC','Microsoft YaHei',Arial,sans-serif" font-size="20" font-weight="400" fill="#9a3412"><tspan x="1198" dy="0">主分支工作流不是“代码推上去就结束”。</tspan><tspan x="1198" dy="26">只有 packaging-test 和 smoke-test 都通过，才会进入远端部署；</tspan><tspan x="1198" dy="26">部署脚本还会继续等待 Prometheus、Grafana、SkyWalking、节点注册和业务 Trace。</tspan></text>
</svg>